<mxfile host="app.diagrams.net" modified="2021-05-31T20:26:07.261Z" agent="5.0 (Windows NT 10.0; Win64; x64) AppleWebKit/537.36 (KHTML, like Gecko) Chrome/91.0.4472.77 Safari/537.36" etag="03M3QCXpd_oTJrMSdTt9" version="14.5.0" type="github">
  <diagram name="Page-1" id="5f0bae14-7c28-e335-631c-24af17079c00">
    <mxGraphModel dx="496" dy="257" grid="1" gridSize="10" guides="1" tooltips="1" connect="1" arrows="1" fold="1" page="1" pageScale="1" pageWidth="1100" pageHeight="850" background="none" math="0" shadow="0">
      <root>
        <mxCell id="0" />
        <mxCell id="1" parent="0" />
        <mxCell id="rSj9OMTHOq_rHi-csnyR-17" value="&lt;p style=&quot;margin: 0px ; margin-top: 6px ; text-align: center&quot;&gt;&lt;b&gt;Timer&lt;/b&gt;&lt;/p&gt;&lt;hr&gt;&lt;p style=&quot;margin: 0px ; margin-left: 8px&quot;&gt;+ OS_Counter: uint32_t&lt;br&gt;&lt;/p&gt;" style="align=left;overflow=fill;html=1;dropTarget=0;container=0;" vertex="1" parent="1">
          <mxGeometry x="300" y="320" width="150" height="60" as="geometry" />
        </mxCell>
        <mxCell id="rSj9OMTHOq_rHi-csnyR-18" value="" style="shape=component;jettyWidth=8;jettyHeight=4;" vertex="1" parent="1">
          <mxGeometry x="426" y="324" width="20" height="20" as="geometry">
            <mxPoint x="-24" y="4" as="offset" />
          </mxGeometry>
        </mxCell>
      </root>
    </mxGraphModel>
  </diagram>
</mxfile>
